<?xml version="1.0" encoding="UTF-8" standalone="no"?>
<svg
   id="icon"
   viewBox="0 0 32 32"
   version="1.1"
   sodipodi:docname="image.svg"
   inkscape:version="1.3.2 (091e20ef0f, 2023-11-25, custom)"
   xmlns:inkscape="http://www.inkscape.org/namespaces/inkscape"
   xmlns:sodipodi="http://sodipodi.sourceforge.net/DTD/sodipodi-0.dtd"
   xmlns="http://www.w3.org/2000/svg"
   xmlns:svg="http://www.w3.org/2000/svg"
   xmlns:rdf="http://www.w3.org/1999/02/22-rdf-syntax-ns#"
   xmlns:cc="http://creativecommons.org/ns#"
   xmlns:dc="http://purl.org/dc/elements/1.1/">
  <sodipodi:namedview
     id="namedview2"
     pagecolor="#505050"
     bordercolor="#ffffff"
     borderopacity="1"
     inkscape:showpageshadow="0"
     inkscape:pageopacity="0"
     inkscape:pagecheckerboard="1"
     inkscape:deskcolor="#d1d1d1"
     inkscape:zoom="18.171265"
     inkscape:cx="15.1613"
     inkscape:cy="14.363337"
     inkscape:window-width="1912"
     inkscape:window-height="1020"
     inkscape:window-x="4"
     inkscape:window-y="26"
     inkscape:window-maximized="1"
     inkscape:current-layer="icon" />
  <defs
     id="defs1">
    <style
       id="style1">.cls-1{fill:none;}</style>
  </defs>
  <title
     id="title1">image</title>
  <path
     id="path1"
     d="M 6 4 A 2 2 0 0 0 4 6 L 4 26 A 2 2 0 0 0 6 28 L 26 28 A 2 2 0 0 0 28 26 L 28 6 A 2 2 0 0 0 26 4 L 6 4 z M 6 6 L 26 6 L 26 21.169922 L 22.410156 17.580078 A 2 2 0 0 0 19.589844 17.580078 L 18 19.169922 L 12.410156 13.580078 A 2 2 0 0 0 9.5898438 13.580078 L 6 17.169922 L 6 6 z M 19.427734 8.03125 A 3 3 0 0 0 16 11 A 3 3 0 0 0 19 14 A 3 3 0 0 0 19.427734 8.03125 z M 19 10 A 1 1 0 1 1 18 11 A 1 1 0 0 1 19 10 z M 11 15 L 16.589844 20.589844 A 2 2 0 0 0 19.410156 20.589844 L 21 19 L 26 24 L 26 26 L 6 26 L 6 20 L 11 15 z "
     style="fill:#ffffff;fill-opacity:1" />
  <metadata
     id="metadata2">
    <rdf:RDF>
      <cc:Work
         rdf:about="">
        <dc:title>image</dc:title>
      </cc:Work>
    </rdf:RDF>
  </metadata>
</svg>
