<?xml version="1.0" encoding="UTF-8" standalone="no"?>
<svg
   id="icon"
   width="32"
   height="32"
   viewBox="0 0 32 32"
   version="1.1"
   sodipodi:docname="information.svg"
   inkscape:version="1.3.2 (091e20ef0f, 2023-11-25, custom)"
   xmlns:inkscape="http://www.inkscape.org/namespaces/inkscape"
   xmlns:sodipodi="http://sodipodi.sourceforge.net/DTD/sodipodi-0.dtd"
   xmlns="http://www.w3.org/2000/svg"
   xmlns:svg="http://www.w3.org/2000/svg">
  <sodipodi:namedview
     id="namedview2"
     pagecolor="#505050"
     bordercolor="#ffffff"
     borderopacity="1"
     inkscape:showpageshadow="0"
     inkscape:pageopacity="0"
     inkscape:pagecheckerboard="1"
     inkscape:deskcolor="#d1d1d1"
     inkscape:zoom="25.75"
     inkscape:cx="16"
     inkscape:cy="16"
     inkscape:window-width="1912"
     inkscape:window-height="1020"
     inkscape:window-x="4"
     inkscape:window-y="26"
     inkscape:window-maximized="1"
     inkscape:current-layer="icon" />
  <defs
     id="defs1">
    <style
       id="style1">
      .cls-1 {
        fill: none;
      }
    </style>
  </defs>
  <path
     id="polygon1"
     d="M 14.007812 2.1425781 A 14 14 0 0 0 16 30 A 14 14 0 0 0 30 16 A 14 14 0 0 0 14.007812 2.1425781 z M 16 4 A 12 12 0 0 1 28 16 A 12 12 0 1 1 16 4 z M 16 8 A 1.5 1.5 0 1 0 17.5 9.5 A 1.5 1.5 0 0 0 16 8 z M 13 14 L 13 16 L 15 16 L 15 22 L 12 22 L 12 24 L 20 24 L 20 22 L 17 22 L 17 14 L 13 14 z "
     style="fill:#ffffff;fill-opacity:1" />
</svg>
