<?xml version="1.0" encoding="UTF-8" standalone="no"?>
<!-- Created with Inkscape (http://www.inkscape.org/) -->

<svg
   width="256"
   height="256"
   viewBox="0 0 67.733334 67.733333"
   version="1.1"
   id="svg1"
   inkscape:version="1.4 (e7c3feb100, 2024-10-09)"
   xml:space="preserve"
   sodipodi:docname="tshirt-small.svg"
   xmlns:inkscape="http://www.inkscape.org/namespaces/inkscape"
   xmlns:sodipodi="http://sodipodi.sourceforge.net/DTD/sodipodi-0.dtd"
   xmlns="http://www.w3.org/2000/svg"
   xmlns:svg="http://www.w3.org/2000/svg"><sodipodi:namedview
     id="namedview1"
     pagecolor="#ffffff"
     bordercolor="#666666"
     borderopacity="1.0"
     inkscape:showpageshadow="2"
     inkscape:pageopacity="0.0"
     inkscape:pagecheckerboard="0"
     inkscape:deskcolor="#d1d1d1"
     inkscape:document-units="px"
     showgrid="false"
     inkscape:zoom="1.6158495"
     inkscape:cx="106.44556"
     inkscape:cy="248.78555"
     inkscape:window-width="2560"
     inkscape:window-height="1372"
     inkscape:window-x="0"
     inkscape:window-y="0"
     inkscape:window-maximized="1"
     inkscape:current-layer="layer1"><inkscape:grid
       id="grid1"
       units="px"
       originx="0"
       originy="0"
       spacingx="1.0583333"
       spacingy="1.0583333"
       empcolor="#0099e5"
       empopacity="0.30196078"
       color="#0099e5"
       opacity="0.14901961"
       empspacing="16"
       dotted="false"
       gridanglex="30"
       gridanglez="30"
       visible="false" /></sodipodi:namedview><defs
     id="defs1" /><g
     inkscape:label="Layer 1"
     inkscape:groupmode="layer"
     id="layer1"><path
       style="fill:#261a66;fill-opacity:1;stroke-width:0.999998;opacity:0.59829208"
       d="m 23.356015,52.766241 c -0.298374,-0.06487 -0.375117,-0.103335 -0.585636,-0.293525 -0.246976,-0.223127 -0.321197,-0.406429 -0.359785,-0.888542 -0.06043,-0.755027 -0.196735,-1.071522 -0.78729,-1.828088 -0.216828,-0.277782 -0.435938,-0.595968 -0.486907,-0.70708 -0.256394,-0.558926 -0.18048,-1.223151 0.212698,-1.861045 0.465094,-0.754574 0.547348,-0.903446 0.658685,-1.192149 0.06727,-0.17444 0.187017,-0.555983 0.266102,-0.847874 0.261142,-0.963839 0.422088,-1.323309 0.818263,-1.827577 0.422045,-0.537194 0.944835,-0.873747 2.156482,-1.388262 0.974756,-0.413923 1.474016,-0.677017 1.918824,-1.011159 1.256927,-0.944213 1.713639,-2.38095 1.133859,-3.566926 -0.153998,-0.31501 -0.585205,-0.76343 -0.929312,-0.966403 -0.711953,-0.419952 -1.816661,-0.598246 -2.547924,-0.41122 -0.337891,0.08642 -1.300211,0.516951 -1.515274,0.677917 -0.267177,0.199975 -0.378036,0.522738 -0.288896,0.841115 0.03112,0.111156 0.136639,0.27729 0.285344,0.449266 0.577259,0.667596 0.67879,1.283131 0.341594,2.070937 -0.08014,0.187228 -0.211202,0.568819 -0.291257,0.847979 -0.274007,0.955497 -0.412415,1.21866 -1.319422,2.508694 -0.281764,0.400751 -0.461825,0.84472 -0.577287,1.423385 -0.100997,0.506192 -0.289641,1.048846 -0.423966,1.219612 -0.163166,0.207434 -0.494965,0.08467 -0.492773,-0.182321 0.0025,-0.298425 0.09654,-1.322839 0.155157,-1.689435 0.09725,-0.608152 0.259055,-1.161464 0.388927,-1.330007 0.398629,-0.517326 0.424598,-0.646544 0.257213,-1.279781 -0.162897,-0.61625 -0.17438,-1.092037 -0.04828,-2.000028 0.0571,-0.411116 0.124236,-0.929305 0.149197,-1.151531 0.107146,-0.953899 0.283237,-1.454386 0.654718,-1.860847 0.241947,-0.264728 0.450126,-0.410396 1.23355,-0.863145 0.316771,-0.183066 0.687126,-0.416422 0.823012,-0.518568 0.348783,-0.262185 0.705867,-0.698317 0.986436,-1.204807 0.490599,-0.885638 0.532112,-1.02289 0.610165,-2.017366 0.06846,-0.872179 0.132321,-1.119773 0.328679,-1.274228 0.157945,-0.124241 0.415259,-0.107149 0.57053,0.03789 0.15266,0.142605 0.16139,0.279505 0.04468,0.70067 -0.104229,0.376124 -0.106503,0.839166 -0.0052,1.060922 0.101233,0.221631 0.405247,0.493063 0.591348,0.527975 0.339471,0.06368 0.6817,-0.180847 0.722394,-0.516169 0.01158,-0.09539 0.03039,-0.322966 0.0418,-0.505738 0.0318,-0.509327 0.217367,-0.810738 0.621255,-1.009075 0.19949,-0.09796 0.27664,-0.112852 0.573911,-0.110757 0.300009,0.0021 0.377244,0.01866 0.610767,0.130801 0.307802,0.147817 0.524477,0.343849 0.754579,0.682688 0.363547,0.535349 0.90929,0.907335 1.535568,1.046668 0.249776,0.05557 0.442223,0.06341 1.095032,0.04463 1.116054,-0.03212 1.443558,-0.107496 2.785296,-0.641083 0.940651,-0.374082 1.293842,-0.471206 1.902792,-0.523245 0.856368,-0.07319 1.328472,-0.273957 1.58118,-0.672436 0.229364,-0.361672 0.260328,-0.705852 0.09539,-1.060355 -0.07889,-0.169562 -0.235481,-0.351489 -0.660773,-0.767686 -0.562991,-0.550952 -0.572793,-0.563774 -1.255276,-1.641742 -0.419733,-0.662961 -0.922151,-1.08881 -2.217639,-1.87967 -0.369209,-0.225392 -0.77129,-0.489442 -0.893514,-0.586779 -0.517045,-0.411765 -0.892198,-1.004047 -1.074058,-1.695692 -0.264842,-1.007251 -0.659781,-1.442102 -1.306068,-1.438055 -0.321584,0.0021 -0.591768,0.112683 -0.811471,0.332387 -0.228313,0.228313 -0.3034,0.418395 -0.3034,0.768052 0,0.257169 0.01666,0.331389 0.110128,0.49037 0.14214,0.241791 0.399522,0.454786 0.922923,0.763766 0.814182,0.480634 2.003073,1.335488 2.3966,1.723237 0.730676,0.719949 0.829295,1.555946 0.307467,2.606424 -0.208281,0.419287 -0.360035,0.632132 -0.612587,0.859197 -0.235569,0.211798 -0.545743,0.382054 -0.882076,0.484176 -0.2759,0.08377 -1.322116,0.140394 -2.626299,0.142138 -1.525103,0.0021 -1.967936,-0.08844 -2.82832,-0.577874 -0.255559,-0.145375 -0.552014,-0.285992 -0.658789,-0.312481 -0.284768,-0.07065 -0.655122,-0.02867 -0.917778,0.104015 -0.29311,0.148074 -0.829166,0.689465 -1.040114,1.050465 -0.285564,0.488695 -0.336703,0.705484 -0.371707,1.57578 -0.02736,0.680131 -0.04337,0.804508 -0.140404,1.090536 -0.217997,0.642587 -0.604188,1.101207 -1.477064,1.754085 -0.634261,0.4744 -0.66013,0.488756 -0.880767,0.488756 -0.256435,0 -0.462614,-0.139258 -0.551708,-0.372642 -0.05568,-0.145859 -0.05964,-0.22849 -0.0254,-0.529691 0.072,-0.633257 0.316147,-1.02088 0.866963,-1.376418 0.67444,-0.435335 1.019736,-0.954734 1.372636,-2.064741 0.568827,-1.789178 0.640719,-1.993763 0.784518,-2.232515 0.330465,-0.548684 0.721928,-0.815306 1.247489,-0.849653 0.15914,-0.0104 0.385806,0.0035 0.505057,0.03092 0.237755,0.05473 0.782359,0.329029 1.249297,0.629236 0.410155,0.2637 0.816481,0.446182 1.216861,0.546496 0.275807,0.0691 0.535355,0.09025 1.447207,0.117911 1.486933,0.04511 1.851265,5.96e-4 2.484883,-0.303585 0.200003,-0.09601 0.439547,-0.239964 0.532321,-0.319886 0.684337,-0.589538 0.755256,-1.428993 0.173995,-2.059587 -0.371552,-0.403088 -0.8895,-0.502648 -1.262089,-0.242602 -0.145449,0.10152 -0.213631,0.204496 -0.448705,0.677715 -0.215309,0.433435 -0.328214,0.610153 -0.505725,0.791563 -0.39669,0.405407 -0.82956,0.567477 -1.515667,0.567477 -0.67173,0 -1.199698,-0.188902 -1.63296,-0.584254 -0.372044,-0.339491 -0.543049,-0.705978 -0.594624,-1.274357 -0.103582,-1.141501 -0.451552,-1.737899 -1.253327,-2.14812 -0.1991,-0.101868 -0.462001,-0.216889 -0.584225,-0.255604 -1.143085,-0.362073 -1.781007,-0.744176 -2.318731,-1.388874 -0.334133,-0.400603 -0.7889,-0.829878 -0.985314,-0.930082 -0.499732,-0.254943 -1.103901,-0.274932 -1.557686,-0.05153 -0.332969,0.16392 -0.639345,0.48826 -0.735945,0.779098 -0.11168,0.336237 -0.06759,0.677363 0.140293,1.085348 0.673124,1.321082 1.154421,1.737209 2.273451,1.965614 1.557398,0.317882 2.043642,1.183725 1.453407,2.588052 -0.216828,0.515895 -0.337591,0.892936 -0.528183,1.649075 -0.136387,0.541089 -0.278309,0.928998 -0.404961,1.106866 -0.107106,0.150416 -0.459102,0.327497 -0.650988,0.327497 -0.176927,0 -0.585027,-0.195596 -0.735135,-0.352343 -0.05916,-0.06177 -0.200003,-0.282481 -0.312996,-0.490469 -0.112995,-0.207987 -0.322656,-0.528269 -0.465918,-0.711736 -0.307501,-0.393799 -0.420625,-0.63725 -0.450479,-0.969454 -0.01916,-0.213227 -4.92e-4,-0.306888 0.14922,-0.748769 0.278723,-0.822644 0.262532,-1.290534 -0.06608,-1.90992 -0.09704,-0.182894 -0.306334,-0.587084 -0.465109,-0.898199 -0.311385,-0.610154 -0.461535,-0.853031 -0.657915,-1.064229 -0.330373,-0.355297 -0.87117,-0.457851 -1.24759,-0.236586 -0.323715,0.190284 -0.499853,0.552585 -0.463396,0.953165 0.01933,0.212431 0.153784,0.604746 0.416858,1.216349 0.158939,0.369507 0.185072,0.926392 0.05916,1.260689 -0.162865,0.43241 -0.584298,0.780849 -1.132945,0.936719 -0.122224,0.03472 -0.467683,0.10032 -0.767688,0.145761 -0.79398,0.120272 -1.283288,0.220935 -2.298551,0.472869 -1.029347,0.255428 -1.240436,0.266224 -1.601259,0.08189 -0.476829,-0.243594 -0.656163,-0.552915 -1.70355,-2.938332 -0.79106,-1.801503 -1.9002893,-4.299762 -2.1221816,-4.779548 -0.2146915,-0.464217 -0.2245962,-0.563428 -0.07153,-0.716495 0.1099857,-0.109985 0.3175212,-0.101479 0.5508277,0.02257 0.2241291,0.11917 0.3629725,0.106846 0.5728113,-0.05084 0.1819385,-0.136718 0.2891597,-0.323508 0.2893427,-0.504058 4.58e-4,-0.433521 0.189496,-0.78777 0.574684,-1.076819 0.369762,-0.277473 2.705135,-1.220068 4.577051,-1.847372 1.680603,-0.563192 3.796783,-1.117627 4.92936,-1.291482 0.244448,-0.03752 0.635363,-0.0701 0.868699,-0.07239 0.359969,-0.0035 0.448735,0.0088 0.585867,0.08167 0.624344,0.331574 0.675368,1.026702 0.141785,1.931641 -0.375906,0.637526 -0.499223,0.980653 -0.500974,1.393959 -0.0014,0.302806 0.01367,0.375747 0.126399,0.616515 0.185497,0.396189 0.466002,0.673041 0.913461,0.901564 0.716419,0.365885 1.138142,0.677876 1.723401,1.274968 0.336503,0.343307 0.60301,0.580483 0.695682,0.619119 0.352042,0.146769 0.761572,0.02849 0.936827,-0.270548 0.135147,-0.230613 0.135801,-0.451001 0.0025,-0.841582 -0.19771,-0.579287 -0.266518,-0.923014 -0.266518,-1.331378 0,-0.469927 0.07532,-0.791485 0.28842,-1.231288 0.573721,-1.184077 1.689014,-1.615517 2.605778,-1.008022 0.261231,0.173105 0.385571,0.306168 0.564385,0.603976 0.226595,0.377385 0.268698,0.567044 0.300481,1.353553 0.03313,0.819544 0.07912,0.970763 0.386033,1.269051 0.321133,0.312105 0.77252,0.415662 1.322905,0.303498 0.117762,-0.024 0.428683,-0.107844 0.690932,-0.186326 0.442186,-0.132329 0.50675,-0.141403 0.888901,-0.124933 0.523784,0.02257 0.780081,0.129651 1.112,0.464583 0.377428,0.380854 0.580166,0.85233 0.856293,1.99135 0.07934,0.327268 0.115224,0.406175 0.243479,0.53536 0.174516,0.175783 0.369938,0.203222 0.529199,0.07431 0.08465,-0.06852 0.09779,-0.12022 0.116725,-0.459218 0.01832,-0.327907 0.03695,-0.405615 0.131659,-0.548714 0.162196,-0.245095 0.361293,-0.357324 0.798087,-0.449875 0.828511,-0.17555 1.182109,-0.481667 1.8146,-1.570939 0.09512,-0.16381 0.317672,-0.518359 0.494567,-0.787888 0.401526,-0.611796 0.628028,-1.075224 0.841819,-1.722392 0.111264,-0.336811 0.35607,-0.885614 0.734877,-1.647445 0.52497,-1.055783 0.585228,-1.158124 0.794875,-1.35 0.259735,-0.23772 0.458672,-0.336465 0.843955,-0.418908 0.511211,-0.10939 2.407563,0.08357 2.796155,0.284522 0.06488,0.03355 0.168898,0.127784 0.231159,0.209413 0.100987,0.132394 0.113201,0.181461 0.113201,0.454593 0,0.288708 -0.01313,0.333848 -0.230115,0.791035 -0.281225,0.592545 -0.331371,0.784604 -0.30641,1.173547 0.03011,0.469074 0.227083,0.835955 0.671523,1.250728 0.792684,0.739773 1.174244,1.145668 1.414944,1.505184 0.326764,0.488069 0.66121,0.826936 0.879021,0.890647 0.695647,0.203482 1.281222,-0.301492 1.149257,-0.991071 -0.05793,-0.30263 -0.153603,-0.463707 -0.546464,-0.91991 -0.427372,-0.49628 -0.607764,-0.762209 -0.755397,-1.113584 -0.510485,-1.214991 0.110174,-2.504849 1.283534,-2.667451 0.573651,-0.07949 1.311045,0.148916 1.613724,0.499861 0.195976,0.227226 0.275841,0.394043 0.361891,0.755888 0.186324,0.7835 0.562432,1.185202 1.109688,1.185202 0.184272,0 0.285929,-0.02945 0.528681,-0.153165 0.165298,-0.08424 0.41197,-0.232677 0.548157,-0.32986 0.417065,-0.297609 0.66913,-0.392897 1.089458,-0.411846 0.313411,-0.01413 0.419495,-5.84e-4 0.727282,0.09286 0.759055,0.230433 3.209655,1.266069 3.81187,1.610917 0.52124,0.298478 0.701548,0.462758 0.859048,0.782687 0.124884,0.253675 0.133884,0.299423 0.133191,0.676956 -6.88e-4,0.353922 -0.01769,0.45322 -0.135314,0.788739 -0.186181,0.531057 -0.694256,1.561028 -0.870423,1.764524 -0.263674,0.304577 -0.69924,0.378947 -1.040422,0.177644 -0.175793,-0.103719 -0.429758,-0.442393 -0.651749,-0.869136 -0.601633,-1.156543 -1.870337,-1.603848 -2.742078,-0.966773 -0.341821,0.249805 -0.557818,0.705842 -0.558871,1.179956 -5.74e-4,0.25793 0.106278,0.694038 0.30363,1.23923 0.189469,0.523415 0.261553,0.878659 0.261553,1.288968 0,0.844229 -0.424981,1.683268 -1.124813,2.220714 -0.55088,0.423056 -1.098362,0.626841 -2.077993,0.773477 -0.744256,0.111402 -1.286062,0.218161 -1.725742,0.340041 -0.376465,0.104357 -0.550595,0.105478 -0.716032,0.0046 -0.31955,-0.194842 -0.342343,-0.649745 -0.05665,-1.130643 0.254851,-0.428978 0.305494,-0.574461 0.50173,-1.441295 0.244361,-1.079409 0.291256,-1.436031 0.228696,-1.739143 -0.119705,-0.579992 -0.443662,-0.929315 -1.215904,-1.311113 -0.744563,-0.368114 -0.99366,-0.581358 -1.670467,-1.430042 -0.514103,-0.64466 -0.768562,-0.888647 -1.148694,-1.101413 -0.809555,-0.453123 -2.292235,-0.716924 -3.151588,-0.560736 -0.71927,0.130728 -1.362178,0.57606 -1.641281,1.13689 -0.110875,0.222788 -0.120647,0.276793 -0.120647,0.666675 0,0.390819 0.0098,0.444943 0.12509,0.686879 0.137554,0.288799 0.415526,0.584687 0.743634,0.791566 0.111841,0.07052 0.48032,0.232827 0.818842,0.360688 0.854603,0.322789 1.189428,0.503505 1.540734,0.831587 0.611144,0.57074 0.823151,1.295632 0.648384,2.216933 -0.07432,0.391771 -0.368669,1.262147 -0.5828,1.723299 -0.305961,0.65892 -0.76704,1.20845 -1.437962,1.713818 -0.992589,0.747661 -1.318535,1.24335 -1.454243,2.211574 -0.03342,0.238427 -0.07971,0.50623 -0.102858,0.595121 -0.07513,0.288429 -0.350255,0.801399 -0.585105,1.090923 -0.519539,0.64049 -0.598551,1.141308 -0.233852,1.482298 0.164397,0.15371 0.3003,0.194493 0.64812,0.194493 0.232296,0 0.392229,-0.02934 0.674147,-0.123676 0.872233,-0.291868 1.257147,-0.75146 1.580891,-1.887614 0.254725,-0.893934 0.48574,-1.330996 0.946199,-1.790133 0.187409,-0.186873 0.362334,-0.313099 0.587928,-0.424248 0.312047,-0.153746 0.333215,-0.158227 0.747485,-0.158227 0.37482,0 0.453421,0.01271 0.650412,0.105097 0.408515,0.191609 0.681087,0.509047 0.849294,0.989088 0.07075,0.201906 0.08945,0.393389 0.120023,1.229079 0.06457,1.764865 0.184464,3.734809 0.266696,4.382145 0.03399,0.267634 0.07153,0.750589 0.08339,1.073234 l 0.02157,0.586626 -0.121957,0.130556 c -0.09709,0.103933 -0.153669,0.130371 -0.277466,0.129656 -0.322495,-0.0018 -0.439116,-0.218405 -0.347677,-0.645575 0.108225,-0.505581 0.05061,-1.098028 -0.16854,-1.73312 -0.132233,-0.383204 -0.271147,-0.618273 -0.522737,-0.884569 -0.78735,-0.833369 -2.06444,-0.93372 -3.94691,-0.310139 -0.529989,0.175561 -0.876136,0.377253 -1.144264,0.666736 -0.308898,0.333497 -0.43939,0.619086 -0.691598,1.513608 -0.24866,0.881936 -0.373728,1.176242 -0.648772,1.526676 -0.254017,0.323644 -0.529106,0.52627 -1.346409,0.991744 -0.391857,0.22317 -0.903377,0.52558 -1.136715,0.672022 -0.247162,0.155118 -0.540174,0.301823 -0.701978,0.351467 -0.880408,0.270116 -1.668383,-0.238143 -1.925048,-1.241693 -0.102186,-0.399537 -0.100936,-0.674529 0.0041,-0.906258 0.170276,-0.375589 0.435424,-0.542794 0.82157,-0.518088 0.206147,0.01319 0.304369,0.04923 0.609398,0.223625 0.786777,0.449816 1.481371,0.487928 2.216096,0.121596 0.765042,-0.381447 1.222402,-1.125187 1.139972,-1.85377 -0.03568,-0.315315 -0.1175,-0.582695 -0.325713,-1.064314 -0.287008,-0.663874 -0.362612,-1.196856 -0.242213,-1.707509 0.07966,-0.337841 0.231537,-0.621095 0.644317,-1.201622 0.404259,-0.568542 0.464295,-0.716555 0.380232,-0.937421 -0.112755,-0.296258 -0.471668,-0.419435 -0.786637,-0.269972 -0.195005,0.09254 -0.498191,0.494061 -0.723033,0.95755 -0.472409,0.973825 -1.309704,1.399781 -2.323223,1.181892 -0.144447,-0.03105 -0.43536,-0.115169 -0.646474,-0.186924 -0.331558,-0.112692 -0.438881,-0.130473 -0.787889,-0.130533 -0.339711,-5.7e-5 -0.452298,0.01755 -0.70708,0.110543 -1.300454,0.474679 -1.318425,0.47945 -1.878814,0.49876 -0.627952,0.02164 -0.993479,-0.041 -1.655053,-0.2836 -0.243603,-0.08933 -0.6527,-0.223127 -0.909104,-0.297325 -0.256402,-0.07421 -0.66619,-0.209973 -0.910637,-0.30172 -0.799662,-0.300131 -0.830929,-0.306136 -1.047629,-0.201234 -0.216619,0.104865 -0.305926,0.247784 -0.305926,0.48958 0,0.198849 0.107693,0.392474 0.272105,0.489227 0.06589,0.03878 0.254866,0.08016 0.437139,0.09573 0.805405,0.0688 1.282117,0.383847 1.803337,1.191805 0.346934,0.537791 0.637092,0.724999 1.123697,0.724999 0.347675,0 0.613105,-0.09993 1.040465,-0.39171 0.522156,-0.356504 0.972485,-0.56732 1.313163,-0.614741 0.944381,-0.131454 1.727371,0.451716 1.727371,1.286543 0,0.367617 -0.126618,0.709496 -0.406109,1.096522 -0.646571,0.89534 -0.85255,1.552388 -0.762523,2.432356 0.07293,0.712864 0.398495,1.638876 0.703721,2.001616 0.137405,0.163296 0.551538,0.366312 0.808707,0.396444 0.370961,0.04347 0.635506,-0.03899 1.438284,-0.448281 0.983668,-0.501521 1.415053,-0.645041 2.178223,-0.72469 0.322585,-0.03367 0.667449,-0.08977 0.766363,-0.124665 0.554767,-0.195732 0.91723,-0.607174 1.050253,-1.192171 0.02779,-0.122225 0.13009,-0.460564 0.227328,-0.751864 0.09723,-0.291304 0.214443,-0.753958 0.260458,-1.028123 0.09904,-0.590073 0.190965,-0.869848 0.378753,-1.152674 0.257765,-0.388223 0.53932,-0.566041 1.268268,-0.80098 0.656519,-0.211597 0.914746,-0.265142 1.28193,-0.265817 0.994931,-0.0018 1.619016,0.512668 1.913824,1.577759 0.141788,0.512252 0.09727,0.839969 -0.149879,1.103543 -0.240056,0.256001 -0.593037,0.323484 -1.078679,0.206221 -0.849888,-0.205214 -1.571575,0.137144 -2.173606,1.031125 -0.689801,1.024314 -1.170541,1.497739 -1.887055,1.858341 -0.514397,0.258884 -0.927924,0.363761 -1.7576,0.44576 -1.153292,0.113984 -1.930038,0.433874 -2.163179,0.890868 -0.228894,0.448671 -0.176797,0.897869 0.177229,1.528107 0.119906,0.213457 0.32217,0.59319 0.449474,0.84385 0.138537,0.272778 0.311906,0.543766 0.431839,0.674991 0.560574,0.613356 1.299848,0.600571 2.296573,-0.03971 1.073092,-0.689349 1.717865,-0.910919 3.053811,-1.049412 1.001833,-0.103856 1.489847,-0.284034 1.876428,-0.692787 0.112786,-0.119256 0.263276,-0.339712 0.33442,-0.489904 l 0.129353,-0.273075 0.0202,-0.989913 c 0.01988,-0.974075 0.02196,-0.993685 0.13067,-1.225709 0.241023,-0.514482 0.600962,-0.791318 1.072233,-0.824679 0.3375,-0.02389 0.561229,0.03432 0.785325,0.204321 0.203014,0.154011 0.418766,0.458318 0.473593,0.667977 0.02126,0.08128 0.06617,0.356866 0.09983,0.612426 0.03366,0.255559 0.106853,0.764656 0.162665,1.131328 0.129258,0.849175 0.342881,2.479452 0.547971,4.181875 0.316017,2.623187 0.353476,2.978636 0.430952,4.089362 l 0.02595,0.372139 -0.131475,0.122817 c -0.220033,0.205544 -0.449196,0.135402 -0.698211,-0.213707 -0.08411,-0.117912 -0.09356,-0.187732 -0.118584,-0.875614 -0.04005,-1.100734 -0.168258,-1.443005 -0.757342,-2.021693 -0.567753,-0.55773 -1.208167,-0.840363 -1.801362,-0.79499 -0.984382,0.07529 -1.660619,0.827034 -1.962048,2.181118 -0.149626,0.672157 -0.322401,1.032559 -0.640428,1.335904 -0.443035,0.422583 -0.798578,0.522779 -1.832675,0.51647 -0.707699,-0.0043 -1.904633,-0.06864 -2.08588,-0.1121 -0.317306,-0.07608 -0.683399,-0.36574 -0.831236,-0.657694 -0.198151,-0.391316 -0.231292,-0.583652 -0.265008,-1.537939 -0.04373,-1.237886 -0.103148,-1.427832 -0.745629,-2.38387 -0.171743,-0.255559 -0.450375,-0.746475 -0.619185,-1.090924 -0.264153,-0.538994 -0.343808,-0.663603 -0.571576,-0.894149 -0.345512,-0.349726 -0.600886,-0.452613 -1.072742,-0.43219 -0.637156,0.02757 -1.165188,0.403963 -1.476011,1.052122 -0.195958,0.40863 -0.270831,0.779668 -0.324204,1.606591 -0.07341,1.137456 -0.201081,1.743959 -0.487319,2.315116 -0.405205,0.808544 -1.140804,1.466527 -2.018684,1.805688 -0.660958,0.255354 -1.142574,0.31179 -3.815104,0.447054 -1.807175,0.09147 -2.244761,0.09468 -2.592625,0.01905 z"
       id="path1" /></g></svg>
