<svg width="914" height="477" fill="none" xmlns="http://www.w3.org/2000/svg"><path fill="#0f000a" d="M168.496 22.982h577.008v91.064H168.496z"/><path stroke="#6a5fdb" stroke-width="2.958" d="M168.801 23.469H745.2v90.559H168.801z"/><path fill="#0f000a" d="M86.027 367.611h741.946v86.719H86.027z"/><path d="M150.833 427.49q-5.673 0-9.077-3.267-3.358-3.313-3.358-9.622v-7.261q0-6.309 3.358-9.576 3.404-3.313 9.077-3.313 5.719 0 9.077 3.313 3.404 3.267 3.404 9.576v7.261q0 6.309-3.404 9.622-3.358 3.267-9.077 3.267zm0-3.404q4.13 0 6.4-2.45 2.269-2.496 2.269-6.899v-7.533q0-4.403-2.27-6.853-2.269-2.497-6.399-2.497-4.084 0-6.354 2.497-2.269 2.45-2.269 6.853v7.533q0 4.403 2.27 6.899 2.269 2.45 6.353 2.45zm34.118 2.769v-31.769h12.163q2.813 0 5.083 1.09 2.269 1.088 3.585 3.176 1.316 2.042 1.316 4.947v.59q0 2.86-1.361 4.947-1.316 2.042-3.586 3.131-2.269 1.09-5.037 1.09h-8.351v12.798zm3.812-16.248h7.942q3.041 0 4.81-1.497 1.77-1.543 1.77-4.312v-.454q0-2.768-1.77-4.266-1.724-1.543-4.81-1.543h-7.942zm38.747 16.248v-31.769h19.56v3.45h-15.748v10.619h14.477v3.45h-14.477v10.8h15.975v3.45zm40.834 0v-31.769h12.844q2.95 0 5.173 1.044 2.27.998 3.54 2.904 1.271 1.861 1.271 4.493v.5q0 3.131-1.497 4.946-1.498 1.816-3.54 2.451v.636q1.633.09 2.677 1.089 1.09.998 1.09 3.04v10.666h-3.767v-10.212q0-2.813-2.996-2.813h-10.983v13.025zm3.812-16.475h8.669q3.086 0 4.81-1.497 1.725-1.543 1.725-4.266v-.318q0-2.768-1.68-4.266-1.678-1.498-4.855-1.498h-8.669zm37.612 16.475l9.803-31.769h6.717l9.803 31.769h-3.948l-2.451-8.033h-13.524l-2.451 8.033zm7.398-11.482h11.528l-5.447-17.972h-.635zm43.376 11.482v-28.32H350.33v-3.449h24.235v3.45h-10.211v28.319zm34.163 0v-31.769h3.812v31.769zm37.884.635q-5.673 0-9.077-3.267-3.358-3.313-3.358-9.622v-7.261q0-6.309 3.358-9.576 3.404-3.313 9.077-3.313 5.718 0 9.077 3.313 3.404 3.267 3.404 9.576v7.261q0 6.309-3.404 9.622-3.359 3.267-9.077 3.267zm0-3.404q4.13 0 6.4-2.45 2.268-2.496 2.268-6.899v-7.533q0-4.403-2.269-6.853-2.27-2.497-6.399-2.497-4.085 0-6.354 2.497-2.269 2.45-2.269 6.853v7.533q0 4.403 2.27 6.899 2.268 2.45 6.353 2.45zm34.118 2.769v-31.769h7.397l11.074 29.363h.59v-29.363h3.767v31.769h-7.398l-11.028-29.41h-.636v29.41zm83.847.635q-5.673 0-9.032-3.267-3.358-3.313-3.358-9.622v-7.261q0-6.309 3.358-9.576 3.359-3.313 9.032-3.313 5.627 0 8.623 3.131 3.04 3.132 3.04 8.578v.227h-3.767v-.363q0-3.586-1.951-5.855-1.906-2.315-5.945-2.315-4.04 0-6.309 2.497-2.269 2.45-2.269 6.898v7.443q0 4.448 2.27 6.944 2.268 2.45 6.308 2.45 4.039 0 5.945-2.269 1.951-2.314 1.951-5.9v-.726h3.767v.59q0 5.446-3.04 8.578-2.996 3.131-8.623 3.131zm32.937-.635v-31.769h19.56v3.45h-15.748v10.619h14.478v3.45h-14.478v10.8h15.976v3.45zm40.834 0v-31.769h7.398l11.074 29.363h.59v-29.363h3.767v31.769h-7.398l-11.028-29.41h-.636v29.41zm53.225 0v-28.32h-10.212v-3.449h24.235v3.45h-10.211v28.319zm34.163 0v-31.769h19.56v3.45h-15.748v10.619h14.477v3.45h-14.477v10.8H731.5v3.45zm40.834 0v-31.769h12.844q2.95 0 5.173 1.044 2.27.998 3.54 2.904 1.271 1.861 1.271 4.493v.5q0 3.131-1.498 4.946-1.497 1.816-3.54 2.451v.636q1.634.09 2.678 1.089 1.09.998 1.09 3.04v10.666h-3.768v-10.212q0-2.813-2.995-2.813H756.36v13.025zm3.812-16.475h8.668q3.087 0 4.811-1.497 1.725-1.543 1.725-4.266v-.318q0-2.768-1.68-4.266-1.679-1.498-4.856-1.498h-8.668z" fill="#ff5053"/><path stroke="#6a5fdb" stroke-width="2.933" d="M86.166 368.397h741.669v85.146H86.166z"/><path d="M241.514 94.385V42.643h31.267v5.618h-25.058v17.37h23.062v5.618h-23.062v23.136zm57.49 0l15.965-51.742h10.94l15.966 51.742h-6.431l-3.991-13.083h-22.028l-3.991 13.083zm12.048-18.701h18.774l-8.87-29.271h-1.034zm80.476 19.736q-5.617 0-10.052-1.996t-7.022-5.987q-2.514-4.066-2.514-10.127v-1.552h6.135v1.552q0 6.505 3.696 9.61 3.77 3.104 9.757 3.104 6.061 0 9.24-2.735 3.178-2.735 3.178-6.874 0-2.883-1.478-4.583-1.404-1.7-3.992-2.735-2.587-1.109-6.06-1.922l-3.844-.96q-4.583-1.11-8.057-2.81t-5.396-4.509q-1.922-2.808-1.922-7.17 0-4.36 2.144-7.539 2.217-3.178 6.135-4.879 3.991-1.7 9.165-1.7 5.248 0 9.388 1.774 4.139 1.774 6.578 5.396 2.44 3.548 2.44 8.796v3.105h-6.136v-3.105q0-5.617-3.474-8.057-3.474-2.513-8.796-2.513-5.1 0-8.204 2.292-3.105 2.217-3.105 6.357 0 4.139 2.883 5.987 2.883 1.848 8.057 3.104l3.843.961q4.435 1.035 8.057 2.735 3.622 1.626 5.766 4.435 2.143 2.809 2.143 7.392t-2.291 7.983q-2.292 3.4-6.505 5.322-4.14 1.848-9.757 1.848zm52.98-1.035V42.643h6.21v22.988h24.244V42.643h6.209v51.742h-6.21V71.249h-24.244v23.136zm73.381 0V42.643h6.209v51.742zm61.702 1.035q-9.24 0-14.783-5.322-5.47-5.396-5.47-15.67V62.6q0-10.275 5.47-15.597 5.543-5.396 14.783-5.396 9.313 0 14.783 5.396 5.544 5.322 5.544 15.597v11.826q0 10.275-5.544 15.67-5.47 5.323-14.783 5.323zm0-5.544q6.726 0 10.422-3.992 3.696-4.065 3.696-11.235V62.38q0-7.17-3.696-11.161-3.696-4.066-10.422-4.066-6.653 0-10.348 4.066-3.696 3.991-3.696 11.161v12.27q0 7.17 3.696 11.235 3.695 3.992 10.348 3.992zm55.567 4.509V42.643h12.048l18.036 47.824h.96V42.643h6.136v51.742h-12.049l-17.961-47.898h-1.035v47.898z" fill="#ff5053"/><path d="M108.217 327.667c44.844 0 86.148-28.192 86.148-47.572 0-16.076-22.659-27.75-41.07-7.71l-40.768 27.833c-56.802 29.67-81.054-71.725-57.182-86.195l76.239-43.166c10.856-6.17 16.755.438 14.87 10.349l-4.014 20.924c-2.359 12.554-2.359 31.714 17.468 33.697 24.075 2.424 31.155-11.893 31.155-27.309 0-28.634-26.672-54.84-71.99-54.84-54.288 0-92.286 37.662-92.286 90.077 0 47.13 25.725 83.912 81.43 83.912zm223.367-84.354l-47.208 18.063c-10.855 4.183-15.578-3.964-6.138-10.134l70.34-45.59c10.621-7.045 16.755-15.196 16.755-23.344 0-14.536-12.506-25.326-37.529-25.326H240.24c-19.592 0-34.935 6.826-33.753 24.447 1.89 29.732 33.514 19.598 50.274 14.973l82.373-22.683c5.904-1.54 12.984-.442 13.219 6.607 0 5.505-1.89 9.911-12.98 13.215l-92.052 27.308c-20.773 6.17-24.075 16.518-24.075 24.67 0 10.571 6.134 20.7 24.075 22.683l84.497 9.692c14.397 1.759 19.827 6.165 19.827 12.554 0 6.165-6.138 12.111-19.827 11.009l-103.854-8.59c-17.702-1.54-21.712 5.067-21.712 12.116 0 13.876 14.396 22.903 56.647 22.903 60.422 0 111.878-22.684 111.878-62.769 0-20.04-20.065-30.612-43.193-21.804zm177.106 2.643l-84.736-51.094c-8.497-5.067-9.44-11.232-6.846-16.518 3.071-5.505 10.387-9.91 25.022-3.745l42.72 18.062c11.33 4.844 29.266 12.773 37.529 12.773 13.927 0 25.017-6.166 25.017-25.108 0-16.299-14.63-23.344-30.448-23.344H434.81c-21.004 0-34.696 12.112-37.529 34.135l-13.923 109.241c-2.124 17.18 7.79 27.309 24.31 27.309 22.424 0 34.462-16.076 20.535-36.121l-23.367-33.697c-8.263-11.67-.474-24.005 14.161-18.938l64.671 25.987c16.76 6.826 29.979 9.692 35.405.661 4.487-7.71-.708-13.875-10.383-19.603zm118.804 81.71c54.997 0 83.794-29.732 83.794-87.433 0-57.706-28.797-86.555-83.794-86.555-54.757 0-83.554 28.85-83.554 86.555 0 57.701 28.797 87.434 83.554 87.434zm66.326-89.415l-62.312 70.255c-8.97 9.91-24.075 4.625-27.85-6.826l-31.864-94.925c-6.846-20.701 8.024-32.156 26.908-25.107l89.454 33.477c11.33 4.184 13.688 14.094 5.664 23.126zm107.245 89.416c44.84 0 86.148-28.192 86.148-47.572 0-16.076-22.659-27.75-41.07-7.71l-48.216 23.303c-57.178-1.88-82.567-61.765-49.739-81.665l76.24-43.166c10.855-6.17 16.76.438 14.87 10.349l-4.015 20.924c-2.358 12.554-2.358 31.714 17.468 33.697 24.075 2.424 31.156-11.893 31.156-27.309 0-28.634-26.673-54.84-71.99-54.84-54.285 0-92.287 37.662-92.287 90.077 0 47.13 25.726 83.912 81.43 83.912z" fill="#ff5053"/></svg>
