<?xml version="1.0" encoding="UTF-8" standalone="no"?>
<svg
   width="914"
   height="477"
   viewBox="0 0 914 477"
   fill="none"
   version="1.1"
   id="svg5950"
   sodipodi:docname="c3foc-logo-0.1.svg"
   inkscape:version="1.2.2 (b0a8486541, 2022-12-01)"
   xmlns:inkscape="http://www.inkscape.org/namespaces/inkscape"
   xmlns:sodipodi="http://sodipodi.sourceforge.net/DTD/sodipodi-0.dtd"
   xmlns="http://www.w3.org/2000/svg"
   xmlns:svg="http://www.w3.org/2000/svg">
  <defs
     id="defs5954">
    <rect
       x="143.48541"
       y="203.13957"
       width="275.75039"
       height="79.056597"
       id="rect9016" />
  </defs>
  <sodipodi:namedview
     id="namedview5952"
     pagecolor="#ffffff"
     bordercolor="#000000"
     borderopacity="0.25"
     inkscape:showpageshadow="2"
     inkscape:pageopacity="0.0"
     inkscape:pagecheckerboard="0"
     inkscape:deskcolor="#d1d1d1"
     showgrid="false"
     inkscape:zoom="0.61111942"
     inkscape:cx="411.53986"
     inkscape:cy="232.36048"
     inkscape:window-width="1366"
     inkscape:window-height="699"
     inkscape:window-x="0"
     inkscape:window-y="0"
     inkscape:window-maximized="1"
     inkscape:current-layer="svg5950" />
  <rect
     x="168.49606"
     y="22.982073"
     width="577.00787"
     height="91.063972"
     fill="#0f000a"
     id="rect5938"
     style="stroke-width:1.62786" />
  <rect
     x="168.80057"
     y="23.468794"
     width="576.39886"
     height="90.55912"
     stroke="#6a5fdb"
     stroke-width="2.95798"
     id="rect5940" />
  <rect
     x="86.026825"
     y="367.6109"
     width="741.94635"
     height="86.719002"
     fill="#0f000a"
     id="rect5944"
     style="stroke-width:1.38732" />
  <text
     xml:space="preserve"
     style="font-weight:300;font-size:45.3841px;font-family:'Space Grotesk';-inkscape-font-specification:'Space Grotesk Light';text-align:center;letter-spacing:15.2831px;text-anchor:middle;fill:#ff5053;stroke-width:0.850952"
     x="456.61423"
     y="426.85483"
     id="text7527-7"><tspan
       sodipodi:role="line"
       id="tspan7525-5"
       x="464.25577"
       y="426.85483"
       style="font-style:normal;font-variant:normal;font-weight:normal;font-stretch:normal;font-family:'Space Grotesk';-inkscape-font-specification:'Space Grotesk';fill:#ff5053;stroke-width:0.850952">OPERATION CENTER</tspan></text>
  <rect
     x="86.165588"
     y="368.39728"
     width="741.66882"
     height="85.146225"
     stroke="#6a5fdb"
     stroke-width="2.93341"
     id="rect5946" />
  <text
     xml:space="preserve"
     style="font-weight:300;font-size:73.9166px;font-family:'Space Grotesk';-inkscape-font-specification:'Space Grotesk Light';text-align:center;letter-spacing:24.8915px;text-anchor:middle;fill:#ff5053;stroke-width:1.38594"
     x="456.96307"
     y="94.384872"
     id="text7527"><tspan
       sodipodi:role="line"
       id="tspan7525"
       x="469.40881"
       y="94.384872"
       style="font-style:normal;font-variant:normal;font-weight:normal;font-stretch:normal;font-family:'Space Grotesk';-inkscape-font-specification:'Space Grotesk';fill:#ff5053;stroke-width:1.38594">FASHION</tspan></text>
  <g
     aria-label="C3FOC"
     transform="matrix(4.425565,0,0,4.129495,-787.00278,-718.22091)"
     id="text9014"
     style="font-size:53.3333px;font-family:Pilowlava;-inkscape-font-specification:Pilowlava;text-align:center;letter-spacing:-3.98109px;text-anchor:middle;white-space:pre;shape-inside:url(#rect9016);fill:#ff5053">
    <path
       d="m 202.28353,253.27198 c 10.13333,0 19.46666,-6.82667 19.46666,-11.52 0,-3.89333 -5.12,-6.71999 -9.28,-1.86666 l -9.21224,6.73878 c -12.83458,7.18623 -18.31533,-17.36791 -12.92104,-20.87211 l 17.22666,-10.45333 c 2.45333,-1.49333 3.78666,0.10667 3.36,2.50667 l -0.90667,5.06666 c -0.53333,3.04 -0.53333,7.68 3.94667,8.16 5.43999,0.58666 7.03999,-2.88 7.03999,-6.61333 0,-6.93333 -6.02666,-13.27999 -16.26666,-13.27999 -12.26665,0 -20.85332,9.11999 -20.85332,21.81332 0,11.41332 5.81333,20.31999 18.39999,20.31999 z"
       id="path9020"
       sodipodi:nodetypes="cscccccccssscc" />
    <path
       d="m 252.75575,232.84532 -10.66666,4.37333 c -2.45334,1.01333 -3.52,-0.96 -1.38667,-2.45333 l 15.89332,-11.03999 c 2.4,-1.70667 3.78667,-3.68 3.78667,-5.65333 0,-3.52 -2.82667,-6.13333 -8.48,-6.13333 h -19.78665 c -4.42667,0 -7.89333,1.65333 -7.62666,5.91999 0.42666,7.2 7.57333,4.74667 11.35999,3.62667 l 18.61332,-5.49333 c 1.33333,-0.37334 2.93333,-0.10667 2.98667,1.6 0,1.33333 -0.42667,2.4 -2.93333,3.19999 l -20.79999,6.61333 c -4.69333,1.49334 -5.44,4 -5.44,5.97333 0,2.56 1.38667,5.01333 5.44,5.49333 l 19.09332,2.34667 c 3.25333,0.42667 4.48,1.49333 4.48,3.04 0,1.49333 -1.38667,2.93333 -4.48,2.66666 l -23.46665,-2.08 c -4,-0.37333 -4.90667,1.22667 -4.90667,2.93334 0,3.35999 3.25333,5.54666 12.8,5.54666 13.65332,0 25.27998,-5.49333 25.27998,-15.19999 0,-4.85333 -4.53333,-7.41333 -9.75999,-5.28 z"
       id="path9022" />
    <path
       d="m 292.77464,233.48532 -19.14665,-12.37333 c -1.92,-1.22666 -2.13333,-2.71999 -1.54667,-3.99999 0.69334,-1.33334 2.34667,-2.4 5.65333,-0.90667 l 9.65333,4.37333 c 2.56,1.17333 6.61333,3.09333 8.48,3.09333 3.14666,0 5.65333,-1.49333 5.65333,-6.07999 0,-3.94667 -3.30667,-5.65333 -6.88,-5.65333 h -18.55999 c -4.74666,0 -7.83999,2.93333 -8.47999,8.26666 l -3.14667,26.45332 c -0.48,4.15999 1.76,6.61333 5.49333,6.61333 5.06666,0 7.78666,-3.89334 4.64,-8.74667 l -5.28,-8.15999 c -1.86666,-2.82667 -0.10666,-5.81333 3.2,-4.58667 l 14.61332,6.29333 c 3.78667,1.65334 6.77333,2.34667 8,0.16 1.01333,-1.86666 -0.16,-3.35999 -2.34667,-4.74666 z"
       id="path9024" />
    <path
       d="m 319.62022,253.27198 c 12.42666,0 18.93332,-7.2 18.93332,-21.17333 0,-13.97332 -6.50666,-20.95998 -18.93332,-20.95998 -12.37332,0 -18.87999,6.98666 -18.87999,20.95998 0,13.97333 6.50667,21.17333 18.87999,21.17333 z m 14.98666,-21.65333 -14.07999,17.01333 c -2.02667,2.4 -5.44,1.12 -6.29333,-1.65333 l -7.2,-22.98666 c -1.54666,-5.01333 1.81334,-7.78666 6.08,-6.07999 l 20.21332,8.10666 c 2.56,1.01333 3.09333,3.41333 1.28,5.59999 z"
       id="path9026" />
    <path
       d="m 358.83912,253.27198 c 10.13333,0 19.46666,-6.82667 19.46666,-11.52 0,-3.89333 -5.12,-6.71999 -9.28,-1.86666 l -10.89441,5.64262 C 345.21105,245.07273 339.47425,230.571 346.89249,225.75199 l 17.22666,-10.45333 c 2.45333,-1.49333 3.78666,0.10667 3.36,2.50667 l -0.90667,5.06666 c -0.53333,3.04 -0.53333,7.68 3.94666,8.16 5.44,0.58666 7.04,-2.88 7.04,-6.61333 0,-6.93333 -6.02666,-13.27999 -16.26666,-13.27999 -12.26666,0 -20.85332,9.11999 -20.85332,21.81332 0,11.41332 5.81333,20.31999 18.39999,20.31999 z"
       id="path9028"
       sodipodi:nodetypes="cscccccccssscc" />
  </g>
</svg>
