<?xml version="1.0" encoding="UTF-8" standalone="no"?>
<svg
   width="1000"
   height="154.5766"
   viewBox="0 0 1000 154.5766"
   version="1.1"
   id="svg54"
   sodipodi:docname="39C3-c3foc-header.svg"
   inkscape:version="1.2.2 (b0a8486541, 2022-12-01)"
   xmlns:inkscape="http://www.inkscape.org/namespaces/inkscape"
   xmlns:sodipodi="http://sodipodi.sourceforge.net/DTD/sodipodi-0.dtd"
   xmlns="http://www.w3.org/2000/svg"
   xmlns:svg="http://www.w3.org/2000/svg">
  <defs
     id="defs58" />
  <sodipodi:namedview
     id="namedview56"
     pagecolor="#ffffff"
     bordercolor="#000000"
     borderopacity="0.25"
     inkscape:showpageshadow="2"
     inkscape:pageopacity="0.0"
     inkscape:pagecheckerboard="0"
     inkscape:deskcolor="#d1d1d1"
     showgrid="false"
     inkscape:zoom="0.782"
     inkscape:cx="526.21483"
     inkscape:cy="164.32225"
     inkscape:window-width="1920"
     inkscape:window-height="1014"
     inkscape:window-x="0"
     inkscape:window-y="0"
     inkscape:window-maximized="1"
     inkscape:current-layer="svg54" />
  <rect
     x="0"
     y="0"
     width="1000"
     height="154.5766"
     fill="#141414"
     id="rect2"
     style="stroke-width:0.393162" />
  <path
     d=""
     fill="#faf5f5"
     fill-rule="nonzero"
     id="path20" />
  <path
     d=""
     fill="#faf5f5"
     fill-rule="nonzero"
     id="path40" />
  <g
     id="g2007"
     transform="translate(0,-2.4457009)">
    <path
       d="m 64.28,99.684001 q -5.53,0 -10.15,-2.68 -4.61,-2.68 -7.27,-7.26 -2.65,-4.59 -2.65,-10.01 0,-5.53 2.65,-10.09 2.66,-4.56 7.27,-7.21 4.62,-2.65 10.15,-2.65 h 46.52 q 5.53,0 10.12,2.65 4.59,2.65 7.24,7.21 2.65,4.56 2.65,10.09 0,5.42 -2.65,10.01 -2.65,4.58 -7.24,7.26 -4.59,2.68 -10.12,2.68 H 64.28 m 43.56,-4.22 q 4.27,0 7.86,-2.1 3.59,-2.11 5.7,-5.73 2.11,-3.62 2.11,-7.9 0,-4.33 -2.11,-7.92 -2.11,-3.6 -5.7,-5.71 -3.59,-2.1 -7.86,-2.1 -4.28,0 -7.87,2.1 -3.59,2.11 -5.7,5.71 -2.11,3.59 -2.11,7.92 0,4.28 2.11,7.9 2.11,3.62 5.7,5.73 3.59,2.1 7.87,2.1"
       fill="#faf5f5"
       fill-rule="nonzero"
       id="path4" />
    <path
       d="m 164.27,82.754001 v -3.65 h 19.84 v 3.65 h -19.84 m 20.53,-22.97 v 3.7 h -18.7 v 36.2 h -4.28 v -39.9"
       fill="#faf5f5"
       fill-rule="nonzero"
       id="path6" />
    <path
       d="m 209.54,59.784001 14.82,39.9 h -3.08 l -13.62,-36.54 h -0.34 l -13.57,36.54 h -3.14 l 14.88,-39.9 h 4.05 m -12.88,29.93 v -2.51 h 21.6 v 2.51"
       fill="#faf5f5"
       fill-rule="nonzero"
       id="path8" />
    <path
       d="m 244.43,100.314 q -4.28,0 -7.33,-1.449999 -3.05,-1.46 -4.61,-3.99 -1.57,-2.54 -1.57,-5.85 v -1.37 h 1.88 v 1.43 q 0,2.79 1.37,4.9 1.37,2.11 3.99,3.34 2.62,1.22 6.33,1.22 h 1.59 q 5.25,0 8.18,-1.99 2.94,-2 2.94,-5.65 v -0.4 q 0,-2.96 -1.63,-4.87 -1.62,-1.91 -4.1,-2.99 -2.48,-1.09 -6.59,-2.4 -4.39,-1.31 -7.09,-2.51 -2.71,-1.19 -4.56,-3.44 -1.86,-2.26 -1.86,-5.85 v -0.11 q 0,-2.85 1.51,-4.93 1.52,-2.08 4.31,-3.17 2.79,-1.08 6.55,-1.08 h 1.83 q 4.1,0 7.04,1.43 2.94,1.42 4.47,3.9 1.54,2.48 1.54,5.62 v 1.53 h -1.82 v -1.59 q 0,-2.57 -1.34,-4.68 -1.34,-2.11 -3.88,-3.27 -2.53,-1.17 -6.01,-1.17 h -1.77 q -4.9,0 -7.69,1.91 -2.8,1.91 -2.8,5.44 v 0.17 q 0,2.91 1.63,4.79 1.62,1.88 4.02,2.94 2.39,1.05 6.49,2.25 4.45,1.37 7.16,2.59 2.71,1.23 4.59,3.54 1.88,2.31 1.88,5.95 v 0.4 q 0,2.91 -1.57,5.02 -1.57,2.11 -4.47,3.25 -2.91,1.139999 -6.9,1.139999"
       fill="#faf5f5"
       fill-rule="nonzero"
       id="path10" />
    <path
       d="m 267.92,99.684001 v -39.9 h 1.31 v 20.24 h 25.65 v -20.24 h 1.31 v 39.9 h -1.31 v -18.35 h -25.65 v 18.35"
       fill="#faf5f5"
       fill-rule="nonzero"
       id="path12" />
    <path
       d="m 308.56,99.684001 v -39.9 h 1.26 v 39.9"
       fill="#faf5f5"
       fill-rule="nonzero"
       id="path14" />
    <path
       d="m 337.87,100.314 q -5.65,0 -9.47,-2.139999 -3.82,-2.14 -5.73,-6.27 -1.91,-4.13 -1.91,-9.89 v -4.56 q 0,-5.7 1.91,-9.86 1.91,-4.16 5.73,-6.3 3.82,-2.14 9.47,-2.14 h 0.79 q 5.53,0 9.3,2.19 3.76,2.2 5.67,6.3 1.91,4.11 1.91,9.81 v 4.56 q 0,5.76 -1.91,9.86 -1.91,4.11 -5.67,6.27 -3.77,2.169999 -9.3,2.169999 h -0.79 m 0.79,-1.649999 q 7.47,0 11.26,-4.36 3.79,-4.37 3.79,-12.29 v -4.56 q 0,-7.92 -3.79,-12.29 -3.79,-4.36 -11.26,-4.36 h -0.79 q -7.59,0 -11.43,4.31 -3.85,4.3 -3.85,12.34 v 4.56 q 0,8.04 3.85,12.34 3.84,4.31 11.43,4.31"
       fill="#faf5f5"
       fill-rule="nonzero"
       id="path16" />
    <path
       d="m 390.66,95.184001 -0.12,-7.01 v -28.39 h 2.74 v 39.9 h -3.42 l -22.75,-35.4 h -0.34 l 0.06,7.01 v 28.39 h -2.74 v -39.9 h 3.48 l 22.69,35.4"
       fill="#faf5f5"
       fill-rule="nonzero"
       id="path18" />
    <path
       d="m 433.76,100.314 q -5.82,0 -9.87,-2.139999 -4.04,-2.14 -6.13,-6.3 -2.08,-4.16 -2.08,-10.2 v -3.82 q 0,-6.04 2.08,-10.23 2.09,-4.19 6.13,-6.33 4.05,-2.14 9.87,-2.14 h 0.74 q 5.75,0 9.77,2.17 4.02,2.16 6.07,6.32 2.06,4.17 2.06,10.21 v 3.82 q 0,6.04 -2.06,10.2 -2.05,4.16 -6.07,6.3 -4.02,2.139999 -9.77,2.139999 h -0.74 m 0.74,-4.789999 q 6.1,0 9.09,-3.5 2.99,-3.51 2.99,-10.35 v -3.82 q 0,-6.84 -3.02,-10.38 -3.02,-3.53 -9.06,-3.53 h -0.74 q -6.1,0 -9.18,3.53 -3.08,3.54 -3.08,10.38 v 3.82 q 0,6.84 3.08,10.35 3.08,3.5 9.18,3.5"
       fill="#faf5f5"
       fill-rule="nonzero"
       id="path22" />
    <path
       d="m 458.38,99.684001 v -39.9 h 18.25 q 5.07,0 8.55,1.54 3.47,1.54 5.3,4.56 1.82,3.02 1.82,7.47 v 0.28 q 0,4.45 -1.79,7.5 -1.8,3.05 -5.28,4.59 -3.47,1.54 -8.43,1.54 h -11.58 v -6.22 h 11.58 q 4.04,0 5.98,-1.85 1.94,-1.85 1.94,-5.56 v -0.28 q 0,-3.71 -1.99,-5.56 -2,-1.86 -6.1,-1.86 h -10.78 v 33.75"
       fill="#faf5f5"
       fill-rule="nonzero"
       id="path24" />
    <path
       d="m 502.34,84.064001 v -7.47 h 18.81 v 7.47 h -18.81 m 20.35,-24.28 v 7.69 h -16.88 v 24.52 h 16.88 v 7.69 h -26.05 v -39.9"
       fill="#faf5f5"
       fill-rule="nonzero"
       id="path26" />
    <path
       d="m 544.52,78.134001 q 2.97,0 4.36,-1.22 1.4,-1.23 1.4,-3.62 v -0.12 q 0,-2.45 -1.42,-3.67 -1.43,-1.23 -4.34,-1.23 h -7.24 v 31.41 h -10.77 v -39.9 h 19.5 q 7.58,0 11.6,2.88 4.02,2.87 4.02,8.01 v 0.22 q 0,3.77 -2.06,6.33 -2.05,2.57 -5.18,3.31 v 0.8 q 2.62,0.4 3.73,1.74 1.11,1.33 1.11,3.79 v 2.39 q 0,1.25 0.46,1.68 0.45,0.43 1.42,0.43 0.74,0 1.43,0 v 8.44 q -1.26,0.05 -2.62,0.08 -1.37,0.03 -2.68,0.03 -3.08,0 -5.05,-0.71 -1.97,-0.71 -2.93,-2.31 -0.97,-1.6 -0.97,-4.22 v -4.05 q 0,-1.19 -0.66,-1.68 -0.66,-0.48 -2.08,-0.48 h -9.06 v -8.33"
       fill="#faf5f5"
       fill-rule="nonzero"
       id="path28" />
    <path
       d="m 592.24,59.784001 10.6,39.9 H 590.3 l -6.44,-28.56 H 583 l -6.55,28.56 h -12.54 l 10.6,-39.9 h 17.73 m -17.73,33.63 v -9.4 h 17.73 v 9.4"
       fill="#faf5f5"
       fill-rule="nonzero"
       id="path30" />
    <path
       d="m 613.28,99.684001 v -29.24 h -8.78 v -10.66 h 30.33 v 10.66 h -8.78 v 29.24"
       fill="#faf5f5"
       fill-rule="nonzero"
       id="path32" />
    <path
       d="m 637.33,99.684001 v -39.9 h 13 v 39.9"
       fill="#faf5f5"
       fill-rule="nonzero"
       id="path34" />
    <path
       d="m 672.45,100.314 q -6.27,0 -10.69,-2.049999 -4.42,-2.05 -6.78,-6.36 -2.37,-4.3 -2.37,-10.92 v -2.45 q 0,-6.61 2.37,-10.94 2.36,-4.34 6.78,-6.39 4.42,-2.05 10.69,-2.05 h 0.74 q 6.16,0 10.55,2.05 4.39,2.05 6.81,6.39 2.42,4.33 2.42,10.94 v 2.45 q 0,6.62 -2.42,10.92 -2.42,4.31 -6.81,6.36 -4.39,2.049999 -10.55,2.049999 h -0.74 m 0.74,-10.429999 q 3.59,0 5.16,-2 1.57,-1.99 1.57,-6.9 v -2.45 q 0,-4.9 -1.6,-6.92 -1.59,-2.03 -5.13,-2.03 h -0.74 q -3.48,0 -5.16,2.08 -1.68,2.08 -1.68,6.87 v 2.45 q 0,4.79 1.68,6.85 1.68,2.05 5.16,2.05"
       fill="#faf5f5"
       fill-rule="nonzero"
       id="path36" />
    <path
       d="m 721.19,84.354001 -1.99,-9.81 v -14.76 h 11.86 v 39.9 h -15.91 l -8.78,-24.57 h -0.85 l 1.94,9.81 v 14.76 H 695.6 v -39.9 h 15.9 l 8.78,24.57"
       fill="#faf5f5"
       fill-rule="nonzero"
       id="path38" />
    <path
       d="m 767.66,100.314 q -5.88,0 -9.95,-2.079999 -4.08,-2.08 -6.19,-6.3 -2.11,-4.22 -2.11,-10.55 v -3.25 q 0,-6.32 2.11,-10.57 2.11,-4.25 6.19,-6.33 4.07,-2.08 9.95,-2.08 h 0.97 q 5.35,0 9.2,1.94 3.85,1.94 5.82,5.61 1.96,3.68 1.96,8.75 v 0.75 h -9.12 v -0.75 q 0,-2.56 -0.85,-4.44 -0.86,-1.88 -2.6,-2.94 -1.73,-1.05 -4.41,-1.05 h -0.97 q -4.39,0 -6.59,2.73 -2.19,2.74 -2.19,8.38 v 3.25 q 0,5.59 2.19,8.33 2.2,2.73 6.59,2.73 h 0.97 q 2.73,0 4.47,-1.05 1.74,-1.06 2.57,-2.91 0.82,-1.85 0.82,-4.47 v -0.69 h 9.12 v 0.69 q 0,5.07 -1.96,8.75 -1.97,3.67 -5.82,5.61 -3.85,1.939999 -9.2,1.939999"
       fill="#faf5f5"
       fill-rule="nonzero"
       id="path42" />
    <path
       d="m 794.96,83.554001 v -6.27 h 19.22 v 6.27 h -19.22 m 20.53,-23.77 v 6.38 h -17.62 v 27.14 h 17.62 v 6.38 h -25.2 v -39.9"
       fill="#faf5f5"
       fill-rule="nonzero"
       id="path44" />
    <path
       d="m 847.13,91.024001 -0.35,-8.15 v -23.09 h 5.82 v 39.9 h -7.58 l -17.68,-31.24 h -0.51 l 0.34,8.15 v 23.09 h -5.81 v -39.9 h 7.58 l 17.67,31.24"
       fill="#faf5f5"
       fill-rule="nonzero"
       id="path46" />
    <path
       d="m 870.61,99.684001 v -36.2 h -12.08 v -3.7 h 28.39 v 3.7 h -12.09 v 36.2"
       fill="#faf5f5"
       fill-rule="nonzero"
       id="path48" />
    <path
       d="m 895.41,81.954001 v -2.56 h 20.3 v 2.56 h -20.3 m 21.1,-22.17 v 2.51 h -19.84 v 34.88 h 19.84 v 2.51 h -22.69 v -39.9"
       fill="#faf5f5"
       fill-rule="nonzero"
       id="path50" />
    <path
       d="m 940.62,79.904001 q 5.13,0 7.87,-2.31 2.74,-2.31 2.74,-6.87 v -0.4 q 0,-4.33 -2.74,-6.58 -2.74,-2.25 -7.87,-2.25 h -14.14 v 38.19 h -1.88 v -39.9 h 16.02 q 6.04,0 9.29,2.73 3.25,2.74 3.25,7.7 v 0.4 q 0,4.1 -2.05,6.67 -2.05,2.56 -5.13,3.25 v 0.34 q 2.39,0.34 3.88,1.88 1.48,1.54 1.48,4.22 v 7.35 q 0,2.17 0.63,3 0.62,0.82 2.45,0.82 0.51,-0.05 0.97,-0.05 v 1.65 q -0.23,0.06 -0.49,0.06 -0.25,0 -0.6,0 -1.71,0 -2.79,-0.52 -1.08,-0.51 -1.57,-1.68 -0.48,-1.17 -0.48,-3.05 v -7.41 q 0,-2.96 -2.2,-4.22 -2.19,-1.25 -6.64,-1.25 H 926.2 v -1.77"
       fill="#faf5f5"
       fill-rule="nonzero"
       id="path52" />
  </g>
</svg>
