<svg width="16" height="16" viewBox="0 0 4.233 4.233" xmlns="http://www.w3.org/2000/svg"><path d="M2.315.13A.221.221 0 0 0 2.24.15l-1.77.885a.221.221 0 0 0-.12.2H.347v1.768a.221.221 0 0 0 .098.184l1.328.884.003-.005a.221.221 0 0 0 .22.017l1.77-.884a.221.221 0 0 0 .12-.196v-1.77a.221.221 0 0 0-.098-.186L2.463.167a.221.221 0 0 0-.148-.038zm.007.475l.332.22-1.314.657-.33-.22zm.573.38l.331.22-1.315.66-.331-.222zm.55.606v1.277l-1.329.662V2.257zm-2.654.057l.885.59v1.236l-.885-.59z" fill="white"/></svg>
